<?xml version="1.0" encoding="UTF-8" ?>
<!DOCTYPE svg PUBLIC "-//W3C//DTD SVG 1.1//EN" "http://www.w3.org/Graphics/SVG/1.1/DTD/svg11.dtd">
<svg width="96pt" height="96pt" viewBox="0 0 96 96" version="1.1" xmlns="http://www.w3.org/2000/svg">
<g id="#00010bfe">
<path fill="#00010b" opacity="1.00" d=" M 44.75 0.00 L 48.39 0.00 C 46.87 1.98 45.53 4.07 44.25 6.20 C 47.76 6.33 51.27 6.30 54.78 6.13 C 60.54 6.95 66.37 8.03 71.64 10.62 C 76.10 13.70 80.83 16.53 84.60 20.48 C 86.71 23.00 88.69 25.64 90.48 28.40 C 92.54 32.46 94.14 36.73 96.00 40.87 L 96.00 64.33 C 95.10 66.84 93.73 69.26 93.51 71.97 C 93.54 75.98 94.90 79.82 96.00 83.63 L 96.00 89.26 C 94.59 89.25 93.18 89.25 91.78 89.24 C 92.49 91.51 93.21 93.78 94.07 96.00 L 93.19 96.00 C 92.24 94.36 91.43 92.65 90.54 90.98 C 90.25 90.48 89.67 89.48 89.39 88.98 C 89.55 88.34 89.87 87.07 90.04 86.44 C 91.43 86.84 92.82 87.26 94.21 87.66 C 94.13 87.36 93.96 86.75 93.88 86.44 C 92.85 82.00 91.77 77.57 90.73 73.13 C 91.34 69.97 92.39 66.93 93.27 63.85 C 93.51 63.01 93.71 62.16 93.88 61.31 C 95.11 55.24 94.83 48.97 94.14 42.86 C 93.34 35.48 89.30 28.95 84.70 23.31 C 78.86 15.87 70.12 11.08 61.01 8.93 C 50.93 6.48 40.05 7.64 30.41 11.35 C 29.85 11.09 28.75 10.56 28.20 10.29 C 19.42 6.17 9.59 5.10 0.00 5.20 L 0.00 2.36 C 8.99 1.96 18.01 3.28 26.39 6.62 C 30.20 8.42 34.42 7.50 38.24 6.26 C 41.39 5.49 42.68 2.15 44.75 0.00 Z" />
<path fill="#00010b" opacity="1.00" d=" M 79.58 92.23 C 81.25 92.82 81.98 94.55 82.75 96.00 L 80.22 96.00 C 79.63 94.82 79.41 93.57 79.58 92.23 Z" />
</g>
<g id="#3c72d8ff">
<path fill="#3c72d8" opacity="1.00" d=" M 48.39 0.00 L 68.48 0.00 C 63.73 1.61 59.22 3.82 54.78 6.13 C 51.27 6.30 47.76 6.33 44.25 6.20 C 45.53 4.07 46.87 1.98 48.39 0.00 Z" />
</g>
<g id="#27449cff">
<path fill="#27449c" opacity="1.00" d=" M 68.48 0.00 L 74.46 0.00 C 78.36 3.33 83.01 5.71 86.55 9.48 C 87.97 11.14 90.03 11.88 92.07 12.49 C 92.17 10.92 92.24 9.35 92.28 7.77 C 92.75 10.20 93.00 12.65 93.19 15.11 C 86.21 12.80 79.09 10.38 71.64 10.62 C 66.37 8.03 60.54 6.95 54.78 6.13 C 59.22 3.82 63.73 1.61 68.48 0.00 Z" />
</g>
<g id="#3b72d8ff">
<path fill="#3b72d8" opacity="1.00" d=" M 74.46 0.00 L 89.73 0.00 C 90.78 2.52 91.75 5.09 92.28 7.77 C 92.24 9.35 92.17 10.92 92.07 12.49 C 90.03 11.88 87.97 11.14 86.55 9.48 C 83.01 5.71 78.36 3.33 74.46 0.00 Z" />
</g>
<g id="#000108ff">
<path fill="#000108" opacity="1.00" d=" M 89.73 0.00 L 92.60 0.00 C 93.83 3.19 94.89 6.44 96.00 9.67 L 96.00 16.23 C 95.07 15.83 94.13 15.45 93.19 15.11 C 93.00 12.65 92.75 10.20 92.28 7.77 C 91.75 5.09 90.78 2.52 89.73 0.00 Z" />
</g>
<g id="#3c73d5ff">
<path fill="#3c73d5" opacity="1.00" d=" M 0.00 5.20 C 9.59 5.10 19.42 6.17 28.20 10.29 C 26.21 11.78 24.19 13.24 22.02 14.45 C 18.25 12.96 14.58 10.95 10.49 10.49 C 7.01 10.10 3.50 10.17 0.00 10.07 L 0.00 5.20 Z" />
</g>
<g id="#b4e9ffff">
<path fill="#b4e9ff" opacity="1.00" d=" M 30.41 11.35 C 40.05 7.64 50.93 6.48 61.01 8.93 C 67.23 13.08 74.81 15.31 79.76 21.21 C 76.60 22.62 73.24 23.52 69.84 24.13 C 71.14 26.44 72.73 28.75 75.52 29.31 C 75.79 28.03 76.07 26.76 76.34 25.48 C 77.75 26.17 79.17 26.84 80.59 27.51 C 81.56 26.77 82.54 26.03 83.51 25.28 C 86.24 28.46 88.91 31.82 90.24 35.85 C 93.02 44.03 93.25 52.77 93.88 61.31 C 93.71 62.16 93.51 63.01 93.27 63.85 C 90.56 65.09 88.79 67.53 87.19 69.94 C 87.67 62.76 88.17 55.27 85.59 48.39 C 83.96 43.59 80.98 39.42 77.71 35.60 C 79.26 34.62 80.37 33.15 81.28 31.59 C 79.49 32.06 77.71 32.60 76.06 33.45 C 72.84 30.94 69.51 28.56 66.01 26.46 C 62.14 32.77 61.03 40.40 62.72 47.60 C 62.83 48.17 63.05 49.32 63.16 49.89 C 61.10 49.74 58.83 50.17 57.00 48.99 C 54.14 47.17 52.08 44.42 49.87 41.90 C 48.12 42.37 46.24 43.81 44.41 42.89 C 41.46 39.57 40.06 35.24 37.99 31.37 C 34.82 34.49 32.16 38.07 29.90 41.90 C 27.30 41.67 24.68 41.54 22.06 41.70 C 22.58 42.22 23.60 43.25 24.11 43.77 C 25.37 44.32 26.65 44.82 27.92 45.32 C 27.33 46.93 26.72 48.53 26.17 50.16 C 26.04 49.59 25.77 48.44 25.64 47.87 C 21.93 55.07 21.88 64.02 25.66 71.20 C 25.75 70.62 25.93 69.46 26.02 68.88 C 27.62 73.02 29.79 76.89 31.98 80.73 C 23.55 79.72 19.32 71.38 14.84 65.22 C 16.99 70.04 20.14 74.36 21.98 79.33 C 18.44 76.99 15.45 73.95 12.73 70.72 C 10.42 65.64 7.82 60.54 7.23 54.91 C 6.48 47.95 6.84 40.77 9.02 34.08 C 12.76 24.03 21.15 16.36 30.41 11.35 M 54.38 25.50 C 52.99 25.62 51.11 24.74 50.22 26.27 C 48.92 27.90 49.21 30.13 48.99 32.07 C 50.45 31.29 51.91 30.49 53.36 29.67 C 55.15 30.19 56.94 30.73 58.79 30.98 C 60.47 29.07 60.53 26.43 60.92 24.06 C 58.79 24.70 56.66 25.75 54.38 25.50 M 40.96 25.74 C 40.64 27.98 40.32 32.93 43.95 31.85 C 44.80 29.24 44.10 26.10 40.96 25.74 M 23.10 27.97 C 22.95 30.72 22.98 33.47 23.16 36.21 C 25.08 35.84 26.98 35.39 28.86 34.87 C 28.99 33.60 29.12 32.34 29.26 31.08 C 27.24 29.97 25.19 28.93 23.10 27.97 M 18.15 32.23 C 17.67 34.21 18.04 36.25 18.17 38.25 C 20.94 37.31 21.44 34.41 22.04 31.93 C 20.71 31.68 19.10 30.73 18.15 32.23 Z" />
</g>
<g id="#f1feffff">
<path fill="#f1feff" opacity="1.00" d=" M 61.01 8.93 C 70.12 11.08 78.86 15.87 84.70 23.31 C 89.30 28.95 93.34 35.48 94.14 42.86 C 94.83 48.97 95.11 55.24 93.88 61.31 C 93.25 52.77 93.02 44.03 90.24 35.85 C 88.91 31.82 86.24 28.46 83.51 25.28 C 82.54 26.03 81.56 26.77 80.59 27.51 C 79.17 26.84 77.75 26.17 76.34 25.48 C 76.07 26.76 75.79 28.03 75.52 29.31 C 72.73 28.75 71.14 26.44 69.84 24.13 C 73.24 23.52 76.60 22.62 79.76 21.21 C 74.81 15.31 67.23 13.08 61.01 8.93 Z" />
</g>
<g id="#27459eff">
<path fill="#27459e" opacity="1.00" d=" M 0.00 10.07 C 3.50 10.17 7.01 10.10 10.49 10.49 C 14.58 10.95 18.25 12.96 22.02 14.45 C 18.75 15.52 15.97 17.45 14.58 20.66 C 8.90 21.11 4.26 24.71 0.00 28.17 L 0.00 25.30 C 3.59 22.76 7.45 20.64 11.08 18.16 C 7.86 15.58 3.97 14.22 0.00 13.31 L 0.00 10.07 Z" />
</g>
<g id="#0a1d2bff">
<path fill="#0a1d2b" opacity="1.00" d=" M 28.20 10.29 C 28.75 10.56 29.85 11.09 30.41 11.35 C 21.15 16.36 12.76 24.03 9.02 34.08 C 8.62 33.59 7.80 32.62 7.40 32.13 C 5.71 34.76 4.08 37.45 2.80 40.31 C 2.91 38.53 2.94 36.74 3.00 34.96 C 6.52 29.92 10.42 25.19 14.58 20.66 C 15.97 17.45 18.75 15.52 22.02 14.45 C 24.19 13.24 26.21 11.78 28.20 10.29 Z" />
</g>
<g id="#3c72d6ff">
<path fill="#3c72d6" opacity="1.00" d=" M 71.64 10.62 C 79.09 10.38 86.21 12.80 93.19 15.11 C 94.13 15.45 95.07 15.83 96.00 16.23 L 96.00 40.87 C 94.14 36.73 92.54 32.46 90.48 28.40 C 90.97 25.43 91.37 22.43 91.68 19.43 C 90.27 18.52 88.87 17.60 87.48 16.69 C 87.90 18.01 88.33 19.33 88.76 20.65 C 87.37 20.59 85.99 20.53 84.60 20.48 C 80.83 16.53 76.10 13.70 71.64 10.62 Z" />
</g>
<g id="#3b71d6ff">
<path fill="#3b71d6" opacity="1.00" d=" M 0.00 13.31 C 3.97 14.22 7.86 15.58 11.08 18.16 C 7.45 20.64 3.59 22.76 0.00 25.30 L 0.00 13.31 Z" />
</g>
<g id="#27479fff">
<path fill="#27479f" opacity="1.00" d=" M 87.48 16.69 C 88.87 17.60 90.27 18.52 91.68 19.43 C 91.37 22.43 90.97 25.43 90.48 28.40 C 88.69 25.64 86.71 23.00 84.60 20.48 C 85.99 20.53 87.37 20.59 88.76 20.65 C 88.33 19.33 87.90 18.01 87.48 16.69 Z" />
</g>
<g id="#3b72d7ff">
<path fill="#3b72d7" opacity="1.00" d=" M 0.00 28.17 C 4.26 24.71 8.90 21.11 14.58 20.66 C 10.42 25.19 6.52 29.92 3.00 34.96 C 1.99 35.40 0.99 35.85 0.00 36.32 L 0.00 28.17 Z" />
</g>
<g id="#f4feffff">
<path fill="#f4feff" opacity="1.00" d=" M 54.38 25.50 C 56.66 25.75 58.79 24.70 60.92 24.06 C 60.53 26.43 60.47 29.07 58.79 30.98 C 56.94 30.73 55.15 30.19 53.36 29.67 C 51.91 30.49 50.45 31.29 48.99 32.07 C 49.21 30.13 48.92 27.90 50.22 26.27 C 51.11 24.74 52.99 25.62 54.38 25.50 Z" />
</g>
<g id="#e7fbffff">
<path fill="#e7fbff" opacity="1.00" d=" M 40.96 25.74 C 44.10 26.10 44.80 29.24 43.95 31.85 C 40.32 32.93 40.64 27.98 40.96 25.74 Z" />
</g>
<g id="#8493abff">
<path fill="#8493ab" opacity="1.00" d=" M 62.72 47.60 C 61.03 40.40 62.14 32.77 66.01 26.46 C 69.51 28.56 72.84 30.94 76.06 33.45 C 75.21 33.97 74.38 34.51 73.56 35.06 C 71.62 33.20 69.89 30.72 67.12 30.12 C 63.55 32.26 64.71 37.17 64.34 40.67 C 64.10 41.84 63.87 43.03 63.77 44.23 C 63.74 44.94 63.68 46.38 63.65 47.09 L 62.72 47.60 Z" />
</g>
<g id="#f8ffffff">
<path fill="#f8ffff" opacity="1.00" d=" M 23.10 27.97 C 25.19 28.93 27.24 29.97 29.26 31.08 C 29.12 32.34 28.99 33.60 28.86 34.87 C 26.98 35.39 25.08 35.84 23.16 36.21 C 22.98 33.47 22.95 30.72 23.10 27.97 Z" />
<path fill="#f8ffff" opacity="1.00" d=" M 33.28 96.00 C 34.19 95.19 35.09 94.37 35.99 93.55 C 37.61 94.34 39.21 95.17 40.82 96.00 L 33.28 96.00 Z" />
</g>
<g id="#f1bbaeff">
<path fill="#f1bbae" opacity="1.00" d=" M 64.34 40.67 C 64.71 37.17 63.55 32.26 67.12 30.12 C 69.89 30.72 71.62 33.20 73.56 35.06 C 70.59 37.10 67.55 39.04 64.34 40.67 Z" />
</g>
<g id="#f4ffffff">
<path fill="#f4ffff" opacity="1.00" d=" M 18.15 32.23 C 19.10 30.73 20.71 31.68 22.04 31.93 C 21.44 34.41 20.94 37.31 18.17 38.25 C 18.04 36.25 17.67 34.21 18.15 32.23 Z" />
</g>
<g id="#6aa0c8ff">
<path fill="#6aa0c8" opacity="1.00" d=" M 2.80 40.31 C 4.08 37.45 5.71 34.76 7.40 32.13 C 7.80 32.62 8.62 33.59 9.02 34.08 C 6.84 40.77 6.48 47.95 7.23 54.91 C 7.82 60.54 10.42 65.64 12.73 70.72 C 12.52 71.15 12.11 72.01 11.90 72.44 C 6.58 66.33 5.61 58.13 3.20 50.71 C 2.84 54.16 2.68 57.62 2.64 61.09 C 1.92 57.84 0.98 54.65 0.00 51.48 L 0.00 49.41 C 1.06 46.42 2.08 43.41 2.80 40.31 Z" />
<path fill="#6aa0c8" opacity="1.00" d=" M 8.42 76.83 C 11.89 82.68 12.58 89.52 14.14 96.00 L 11.47 96.00 C 11.69 89.45 10.04 83.11 8.42 76.83 Z" />
</g>
<g id="#648ebbff">
<path fill="#648ebb" opacity="1.00" d=" M 29.90 41.90 C 32.16 38.07 34.82 34.49 37.99 31.37 C 40.06 35.24 41.46 39.57 44.41 42.89 C 46.24 43.81 48.12 42.37 49.87 41.90 C 52.08 44.42 54.14 47.17 57.00 48.99 C 58.83 50.17 61.10 49.74 63.16 49.89 C 63.43 49.91 63.98 49.93 64.26 49.94 C 65.12 50.61 65.97 51.31 66.78 52.05 C 62.10 51.73 57.54 55.22 53.01 53.04 C 52.14 52.62 51.29 52.18 50.44 51.71 C 48.99 50.61 47.62 49.40 46.25 48.20 C 45.46 47.51 44.65 46.84 43.83 46.19 C 46.00 46.13 48.12 45.66 50.20 45.06 C 47.52 44.13 44.75 43.47 41.93 43.14 C 40.55 40.29 39.06 37.50 37.48 34.75 C 35.15 36.86 33.32 39.42 31.62 42.04 C 31.19 42.01 30.33 41.94 29.90 41.90 M 48.01 47.69 C 49.87 49.08 51.84 50.33 53.93 51.34 C 53.01 49.21 51.96 47.14 50.82 45.11 C 49.89 45.97 48.95 46.83 48.01 47.69 Z" />
</g>
<g id="#0a0203ff">
<path fill="#0a0203" opacity="1.00" d=" M 76.06 33.45 C 77.71 32.60 79.49 32.06 81.28 31.59 C 80.37 33.15 79.26 34.62 77.71 35.60 C 76.59 36.27 75.45 36.91 74.34 37.59 C 70.85 39.85 67.37 42.14 63.77 44.23 C 63.87 43.03 64.10 41.84 64.34 40.67 C 67.55 39.04 70.59 37.10 73.56 35.06 C 74.38 34.51 75.21 33.97 76.06 33.45 Z" />
<path fill="#0a0203" opacity="1.00" d=" M 22.06 41.70 C 24.68 41.54 27.30 41.67 29.90 41.90 C 30.33 41.94 31.19 42.01 31.62 42.04 C 35.05 42.46 38.49 42.78 41.93 43.14 C 44.75 43.47 47.52 44.13 50.20 45.06 C 48.12 45.66 46.00 46.13 43.83 46.19 C 41.98 45.80 40.13 45.50 38.25 45.33 C 33.55 44.70 28.81 44.45 24.11 43.77 C 23.60 43.25 22.58 42.22 22.06 41.70 Z" />
<path fill="#0a0203" opacity="1.00" d=" M 64.47 80.53 C 66.19 79.42 67.60 77.78 69.66 77.29 C 69.42 83.31 61.11 85.32 56.88 81.90 C 56.76 81.44 56.53 80.52 56.42 80.06 C 59.08 80.30 61.82 81.23 64.47 80.53 Z" />
</g>
<g id="#264485ff">
<path fill="#264485" opacity="1.00" d=" M 0.00 36.32 C 0.99 35.85 1.99 35.40 3.00 34.96 C 2.94 36.74 2.91 38.53 2.80 40.31 C 2.08 43.41 1.06 46.42 0.00 49.41 L 0.00 36.32 Z" />
</g>
<g id="#e7aca1ff">
<path fill="#e7aca1" opacity="1.00" d=" M 31.62 42.04 C 33.32 39.42 35.15 36.86 37.48 34.75 C 39.06 37.50 40.55 40.29 41.93 43.14 C 38.49 42.78 35.05 42.46 31.62 42.04 Z" />
</g>
<g id="#6d7b91ff">
<path fill="#6d7b91" opacity="1.00" d=" M 74.34 37.59 C 75.45 36.91 76.59 36.27 77.71 35.60 C 80.98 39.42 83.96 43.59 85.59 48.39 C 88.17 55.27 87.67 62.76 87.19 69.94 C 88.79 67.53 90.56 65.09 93.27 63.85 C 92.39 66.93 91.34 69.97 90.73 73.13 C 90.46 72.10 90.19 71.07 89.91 70.04 C 89.31 71.70 88.71 73.37 88.04 75.01 C 88.08 74.37 88.14 73.09 88.18 72.46 C 87.73 72.63 86.83 72.99 86.39 73.16 C 85.73 73.42 84.41 73.93 83.75 74.18 C 84.80 69.35 86.25 64.42 85.38 59.43 C 84.59 54.77 84.22 49.97 82.57 45.50 C 82.35 44.95 82.10 44.41 81.84 43.89 C 79.96 41.14 77.49 38.78 74.34 37.59 Z" />
</g>
<g id="#f7d3c2ff">
<path fill="#f7d3c2" opacity="1.00" d=" M 63.77 44.23 C 67.37 42.14 70.85 39.85 74.34 37.59 C 77.49 38.78 79.96 41.14 81.84 43.89 C 76.61 46.10 71.09 47.48 65.77 49.45 C 66.17 48.45 66.57 47.45 66.97 46.45 C 66.14 46.61 64.48 46.93 63.65 47.09 C 63.68 46.38 63.74 44.94 63.77 44.23 Z" />
</g>
<g id="#a6979bff">
<path fill="#a6979b" opacity="1.00" d=" M 24.11 43.77 C 28.81 44.45 33.55 44.70 38.25 45.33 C 36.19 45.49 34.13 45.74 32.07 45.98 C 30.91 48.76 29.76 51.56 28.67 54.38 C 28.03 54.42 26.73 54.51 26.08 54.55 C 27.51 56.65 28.71 58.96 28.85 61.55 C 27.04 68.25 30.40 74.75 34.41 79.91 C 33.80 80.11 32.59 80.52 31.98 80.73 C 29.79 76.89 27.62 73.02 26.02 68.88 C 25.07 62.68 24.62 56.31 26.17 50.16 C 26.72 48.53 27.33 46.93 27.92 45.32 C 26.65 44.82 25.37 44.32 24.11 43.77 Z" />
</g>
<g id="#0f182cff">
<path fill="#0f182c" opacity="1.00" d=" M 81.84 43.89 C 82.10 44.41 82.35 44.95 82.57 45.50 C 81.33 47.96 82.52 50.58 82.91 53.09 C 83.56 56.19 83.46 59.41 82.87 62.51 C 82.02 58.87 81.83 55.03 80.35 51.57 C 76.90 50.33 73.55 53.04 71.17 55.26 C 69.64 56.43 70.47 58.47 70.55 60.07 C 71.70 62.38 73.12 64.58 74.94 66.43 C 76.41 67.05 77.90 67.63 79.38 68.25 C 77.18 68.51 74.65 68.78 72.98 66.98 C 68.97 63.07 68.52 57.10 66.78 52.05 C 65.97 51.31 65.12 50.61 64.26 49.94 C 64.64 49.81 65.39 49.57 65.77 49.45 C 71.09 47.48 76.61 46.10 81.84 43.89 M 69.16 53.56 C 69.89 53.61 71.37 53.71 72.10 53.75 C 72.14 52.43 73.32 49.51 71.03 49.53 C 68.56 48.55 68.23 52.02 69.16 53.56 Z" />
</g>
<g id="#9ed2f0ff">
<path fill="#9ed2f0" opacity="1.00" d=" M 48.01 47.69 C 48.95 46.83 49.89 45.97 50.82 45.11 C 51.96 47.14 53.01 49.21 53.93 51.34 C 51.84 50.33 49.87 49.08 48.01 47.69 Z" />
</g>
<g id="#f6d0bbff">
<path fill="#f6d0bb" opacity="1.00" d=" M 32.07 45.98 C 34.13 45.74 36.19 45.49 38.25 45.33 C 40.13 45.50 41.98 45.80 43.83 46.19 C 44.65 46.84 45.46 47.51 46.25 48.20 C 44.77 49.08 43.29 49.96 41.80 50.83 C 42.08 51.36 42.63 52.43 42.91 52.96 C 38.16 53.43 33.43 54.03 28.67 54.38 C 29.76 51.56 30.91 48.76 32.07 45.98 Z" />
</g>
<g id="#ffe5d0ff">
<path fill="#ffe5d0" opacity="1.00" d=" M 82.91 53.09 C 82.52 50.58 81.33 47.96 82.57 45.50 C 84.22 49.97 84.59 54.77 85.38 59.43 C 86.25 64.42 84.80 69.35 83.75 74.18 C 84.41 73.93 85.73 73.42 86.39 73.16 C 84.74 78.56 81.47 83.72 76.16 86.10 C 70.81 89.91 64.67 92.87 58.03 93.34 C 55.31 93.23 52.68 92.38 49.97 92.14 C 47.22 91.81 44.73 93.75 41.98 93.35 C 39.11 92.90 36.37 91.86 33.67 90.83 C 33.59 88.55 33.49 86.27 33.38 83.99 C 34.55 83.71 35.73 83.44 36.90 83.17 C 36.07 82.08 35.23 81.00 34.41 79.91 C 30.40 74.75 27.04 68.25 28.85 61.55 C 29.63 67.22 32.19 73.92 38.21 75.68 C 43.82 77.65 50.46 73.59 51.45 67.80 C 52.03 63.17 51.55 58.48 50.45 53.97 C 51.31 53.66 52.16 53.35 53.01 53.04 C 57.54 55.22 62.10 51.73 66.78 52.05 C 68.52 57.10 68.97 63.07 72.98 66.98 C 74.65 68.78 77.18 68.51 79.38 68.25 C 81.09 66.75 82.66 64.88 82.87 62.51 C 83.46 59.41 83.56 56.19 82.91 53.09 M 64.47 80.53 C 61.82 81.23 59.08 80.30 56.42 80.06 C 56.53 80.52 56.76 81.44 56.88 81.90 C 61.11 85.32 69.42 83.31 69.66 77.29 C 67.60 77.78 66.19 79.42 64.47 80.53 Z" />
</g>
<g id="#806a6fff">
<path fill="#806a6f" opacity="1.00" d=" M 62.72 47.60 L 63.65 47.09 C 64.48 46.93 66.14 46.61 66.97 46.45 C 66.57 47.45 66.17 48.45 65.77 49.45 C 65.39 49.57 64.64 49.81 64.26 49.94 C 63.98 49.93 63.43 49.91 63.16 49.89 C 63.05 49.32 62.83 48.17 62.72 47.60 Z" />
</g>
<g id="#d7f4fdff">
<path fill="#d7f4fd" opacity="1.00" d=" M 25.66 71.20 C 21.88 64.02 21.93 55.07 25.64 47.87 C 25.77 48.44 26.04 49.59 26.17 50.16 C 24.62 56.31 25.07 62.68 26.02 68.88 C 25.93 69.46 25.75 70.62 25.66 71.20 Z" />
</g>
<g id="#dfaea5ff">
<path fill="#dfaea5" opacity="1.00" d=" M 46.25 48.20 C 47.62 49.40 48.99 50.61 50.44 51.71 C 47.95 52.26 45.44 52.68 42.91 52.96 C 42.63 52.43 42.08 51.36 41.80 50.83 C 43.29 49.96 44.77 49.08 46.25 48.20 Z" />
</g>
<g id="#fcfdfdff">
<path fill="#fcfdfd" opacity="1.00" d=" M 69.16 53.56 C 68.23 52.02 68.56 48.55 71.03 49.53 C 73.32 49.51 72.14 52.43 72.10 53.75 C 71.37 53.71 69.89 53.61 69.16 53.56 Z" />
<path fill="#fcfdfd" opacity="1.00" d=" M 30.21 56.10 C 31.54 55.95 32.88 55.83 34.22 55.75 C 34.21 57.17 34.20 58.59 34.19 60.01 C 32.86 59.90 31.53 59.78 30.20 59.66 C 30.18 58.47 30.19 57.29 30.21 56.10 Z" />
</g>
<g id="#b2e7feff">
<path fill="#b2e7fe" opacity="1.00" d=" M 3.20 50.71 C 5.61 58.13 6.58 66.33 11.90 72.44 C 16.64 79.79 20.19 87.82 23.24 96.00 L 20.38 96.00 C 19.02 92.92 17.80 89.79 16.26 86.80 C 16.47 89.88 16.78 92.95 17.28 96.00 L 14.14 96.00 C 12.58 89.52 11.89 82.68 8.42 76.83 C 10.04 83.11 11.69 89.45 11.47 96.00 L 8.70 96.00 C 8.55 90.01 7.86 83.94 5.50 78.37 C 3.28 73.18 1.24 67.90 0.00 62.38 L 0.00 51.48 C 0.98 54.65 1.92 57.84 2.64 61.09 C 2.68 57.62 2.84 54.16 3.20 50.71 Z" />
</g>
<g id="#223e77ff">
<path fill="#223e77" opacity="1.00" d=" M 71.17 55.26 C 73.55 53.04 76.90 50.33 80.35 51.57 C 81.83 55.03 82.02 58.87 82.87 62.51 C 82.66 64.88 81.09 66.75 79.38 68.25 C 77.90 67.63 76.41 67.05 74.94 66.43 C 76.41 66.14 77.96 66.08 79.33 65.42 C 81.77 62.50 81.13 58.46 81.08 54.95 C 77.95 55.29 74.83 55.80 71.75 56.50 C 71.35 57.69 70.95 58.88 70.55 60.07 C 70.47 58.47 69.64 56.43 71.17 55.26 Z" />
</g>
<g id="#10192dff">
<path fill="#10192d" opacity="1.00" d=" M 42.91 52.96 C 45.44 52.68 47.95 52.26 50.44 51.71 C 51.29 52.18 52.14 52.62 53.01 53.04 C 52.16 53.35 51.31 53.66 50.45 53.97 C 51.55 58.48 52.03 63.17 51.45 67.80 C 50.46 73.59 43.82 77.65 38.21 75.68 C 32.19 73.92 29.63 67.22 28.85 61.55 C 28.71 58.96 27.51 56.65 26.08 54.55 C 26.73 54.51 28.03 54.42 28.67 54.38 C 33.43 54.03 38.16 53.43 42.91 52.96 M 30.21 56.10 C 30.19 57.29 30.18 58.47 30.20 59.66 C 31.53 59.78 32.86 59.90 34.19 60.01 L 34.18 61.25 C 33.14 61.46 32.11 61.69 31.09 61.97 C 31.15 63.17 31.21 64.38 31.27 65.59 C 33.03 69.32 35.25 74.00 39.99 74.26 C 44.06 75.13 47.38 72.25 49.60 69.22 C 49.93 66.33 50.06 63.43 50.08 60.53 C 49.62 59.49 49.16 58.44 48.71 57.40 C 44.10 57.52 39.46 57.92 35.07 59.40 C 34.79 58.18 34.50 56.96 34.22 55.75 C 32.88 55.83 31.54 55.95 30.21 56.10 Z" />
</g>
<g id="#3a6dccff">
<path fill="#3a6dcc" opacity="1.00" d=" M 71.75 56.50 C 74.83 55.80 77.95 55.29 81.08 54.95 C 81.13 58.46 81.77 62.50 79.33 65.42 C 77.96 66.08 76.41 66.14 74.94 66.43 C 73.12 64.58 71.70 62.38 70.55 60.07 C 70.95 58.88 71.35 57.69 71.75 56.50 Z" />
</g>
<g id="#1a305eff">
<path fill="#1a305e" opacity="1.00" d=" M 34.22 55.75 C 34.50 56.96 34.79 58.18 35.07 59.40 C 39.46 57.92 44.10 57.52 48.71 57.40 C 49.16 58.44 49.62 59.49 50.08 60.53 C 44.77 60.44 39.45 60.54 34.18 61.25 L 34.19 60.01 C 34.20 58.59 34.21 57.17 34.22 55.75 Z" />
</g>
<g id="#274f95ff">
<path fill="#274f95" opacity="1.00" d=" M 34.18 61.25 C 39.45 60.54 44.77 60.44 50.08 60.53 C 50.06 63.43 49.93 66.33 49.60 69.22 C 49.36 67.19 49.12 65.17 48.88 63.14 C 42.98 63.60 36.84 63.23 31.27 65.59 C 31.21 64.38 31.15 63.17 31.09 61.97 C 32.11 61.69 33.14 61.46 34.18 61.25 Z" />
</g>
<g id="#000103fe">
<path fill="#000103" opacity="1.00" d=" M 0.00 62.38 C 1.24 67.90 3.28 73.18 5.50 78.37 C 7.86 83.94 8.55 90.01 8.70 96.00 L 6.06 96.00 C 5.73 87.77 3.77 79.68 0.00 72.34 L 0.00 62.38 Z" />
</g>
<g id="#3970d1ff">
<path fill="#3970d1" opacity="1.00" d=" M 31.27 65.59 C 36.84 63.23 42.98 63.60 48.88 63.14 C 49.12 65.17 49.36 67.19 49.60 69.22 C 47.38 72.25 44.06 75.13 39.99 74.26 C 35.25 74.00 33.03 69.32 31.27 65.59 Z" />
</g>
<g id="#40759dff">
<path fill="#40759d" opacity="1.00" d=" M 14.84 65.22 C 19.32 71.38 23.55 79.72 31.98 80.73 C 32.59 80.52 33.80 80.11 34.41 79.91 C 35.23 81.00 36.07 82.08 36.90 83.17 C 35.73 83.44 34.55 83.71 33.38 83.99 C 33.49 86.27 33.59 88.55 33.67 90.83 C 33.68 91.24 33.71 92.05 33.73 92.46 C 34.48 92.82 35.24 93.18 35.99 93.55 C 35.09 94.37 34.19 95.19 33.28 96.00 L 29.21 96.00 C 29.20 93.70 29.18 91.40 29.09 89.10 C 30.08 90.96 31.12 92.80 32.24 94.59 C 32.50 90.52 31.69 86.51 30.41 82.68 C 28.80 82.14 27.20 81.59 25.59 81.04 C 25.59 81.90 25.58 82.77 25.58 83.63 C 23.60 82.79 21.61 81.96 19.61 81.16 C 21.67 86.07 23.69 91.00 25.53 96.00 L 23.24 96.00 C 20.19 87.82 16.64 79.79 11.90 72.44 C 12.11 72.01 12.52 71.15 12.73 70.72 C 15.45 73.95 18.44 76.99 21.98 79.33 C 20.14 74.36 16.99 70.04 14.84 65.22 Z" />
</g>
<g id="#a8d9f5ff">
<path fill="#a8d9f5" opacity="1.00" d=" M 88.04 75.01 C 88.71 73.37 89.31 71.70 89.91 70.04 C 90.19 71.07 90.46 72.10 90.73 73.13 C 91.77 77.57 92.85 82.00 93.88 86.44 C 92.08 85.21 90.24 84.04 88.39 82.89 C 88.50 84.94 88.50 87.07 89.39 88.98 C 89.67 89.48 90.25 90.48 90.54 90.98 C 90.31 92.65 90.11 94.32 89.93 96.00 L 88.43 96.00 C 87.43 92.90 86.71 89.50 84.19 87.22 C 87.29 86.97 85.05 83.95 83.05 84.08 C 84.83 81.12 86.80 78.25 88.04 75.01 Z" />
</g>
<g id="#653032ff">
<path fill="#653032" opacity="1.00" d=" M 86.39 73.16 C 86.83 72.99 87.73 72.63 88.18 72.46 C 88.14 73.09 88.08 74.37 88.04 75.01 C 86.80 78.25 84.83 81.12 83.05 84.08 C 82.85 84.45 82.46 85.20 82.27 85.57 C 81.53 85.81 80.06 86.27 79.33 86.50 C 79.42 88.41 79.55 90.32 79.58 92.23 C 79.41 93.57 79.63 94.82 80.22 96.00 L 79.06 96.00 C 78.06 93.28 77.42 90.45 76.70 87.65 C 73.37 90.07 70.33 92.87 67.65 96.00 L 57.61 96.00 C 53.87 94.83 49.43 92.69 46.11 96.00 L 40.82 96.00 C 39.21 95.17 37.61 94.34 35.99 93.55 C 35.24 93.18 34.48 92.82 33.73 92.46 C 33.71 92.05 33.68 91.24 33.67 90.83 C 36.37 91.86 39.11 92.90 41.98 93.35 C 44.73 93.75 47.22 91.81 49.97 92.14 C 52.68 92.38 55.31 93.23 58.03 93.34 C 64.67 92.87 70.81 89.91 76.16 86.10 C 81.47 83.72 84.74 78.56 86.39 73.16 Z" />
</g>
<g id="#b3e8feff">
<path fill="#b3e8fe" opacity="1.00" d=" M 19.61 81.16 C 21.61 81.96 23.60 82.79 25.58 83.63 C 25.58 82.77 25.59 81.90 25.59 81.04 C 27.20 81.59 28.80 82.14 30.41 82.68 C 31.69 86.51 32.50 90.52 32.24 94.59 C 31.12 92.80 30.08 90.96 29.09 89.10 C 29.18 91.40 29.20 93.70 29.21 96.00 L 25.53 96.00 C 23.69 91.00 21.67 86.07 19.61 81.16 Z" />
</g>
<g id="#304c62ff">
<path fill="#304c62" opacity="1.00" d=" M 88.39 82.89 C 90.24 84.04 92.08 85.21 93.88 86.44 C 93.96 86.75 94.13 87.36 94.21 87.66 C 92.82 87.26 91.43 86.84 90.04 86.44 C 89.87 87.07 89.55 88.34 89.39 88.98 C 88.50 87.07 88.50 84.94 88.39 82.89 Z" />
</g>
<g id="#324358ff">
<path fill="#324358" opacity="1.00" d=" M 82.27 85.57 C 82.46 85.20 82.85 84.45 83.05 84.08 C 85.05 83.95 87.29 86.97 84.19 87.22 C 83.71 86.81 82.75 85.99 82.27 85.57 Z" />
</g>
<g id="#fcfeffff">
<path fill="#fcfeff" opacity="1.00" d=" M 79.33 86.50 C 80.06 86.27 81.53 85.81 82.27 85.57 C 82.75 85.99 83.71 86.81 84.19 87.22 C 86.71 89.50 87.43 92.90 88.43 96.00 L 82.75 96.00 C 81.98 94.55 81.25 92.82 79.58 92.23 C 79.55 90.32 79.42 88.41 79.33 86.50 Z" />
</g>
<g id="#81b7d5ff">
<path fill="#81b7d5" opacity="1.00" d=" M 16.26 86.80 C 17.80 89.79 19.02 92.92 20.38 96.00 L 17.28 96.00 C 16.78 92.95 16.47 89.88 16.26 86.80 Z" />
</g>
<g id="#c92e33ff">
<path fill="#c92e33" opacity="1.00" d=" M 67.65 96.00 C 70.33 92.87 73.37 90.07 76.70 87.65 C 77.42 90.45 78.06 93.28 79.06 96.00 L 67.65 96.00 Z" />
</g>
<g id="#fbe6d2ff">
<path fill="#fbe6d2" opacity="1.00" d=" M 91.78 89.24 C 93.18 89.25 94.59 89.25 96.00 89.26 L 96.00 96.00 L 94.07 96.00 C 93.21 93.78 92.49 91.51 91.78 89.24 Z" />
</g>
<g id="#e8eaecff">
<path fill="#e8eaec" opacity="1.00" d=" M 89.93 96.00 C 90.11 94.32 90.31 92.65 90.54 90.98 C 91.43 92.65 92.24 94.36 93.19 96.00 L 89.93 96.00 Z" />
</g>
<g id="#cd313aff">
<path fill="#cd313a" opacity="1.00" d=" M 46.11 96.00 C 49.43 92.69 53.87 94.83 57.61 96.00 L 46.11 96.00 Z" />
</g>
</svg>
