<?xml version="1.0" encoding="UTF-8" ?>
<!DOCTYPE svg PUBLIC "-//W3C//DTD SVG 1.1//EN" "http://www.w3.org/Graphics/SVG/1.1/DTD/svg11.dtd">
<svg width="1024pt" height="1024pt" viewBox="0 0 1024 1024" version="1.1" xmlns="http://www.w3.org/2000/svg">
<g id="#4682b4ff">
<path fill="#4682b4" opacity="1.00" d=" M 504.51 0.00 L 519.43 0.00 C 565.13 0.81 610.77 7.38 654.67 20.18 C 726.97 41.09 794.43 78.38 850.77 128.27 C 900.63 172.28 941.85 226.05 971.28 285.70 C 1005.35 354.35 1023.30 430.79 1024.00 507.39 L 1024.00 516.70 C 1023.25 601.70 1001.07 686.46 959.53 760.66 C 923.66 825.12 873.68 881.66 814.15 925.22 C 754.05 969.36 684.18 1000.11 610.99 1014.40 C 579.28 1020.66 546.98 1023.73 514.67 1024.00 L 509.36 1024.00 C 453.03 1023.65 396.73 1014.14 343.55 995.53 C 276.77 972.31 215.02 934.90 163.30 886.71 C 111.81 838.82 70.25 780.27 42.25 715.75 C 14.91 653.15 0.65 584.98 0.00 516.70 L 0.00 506.39 C 0.41 480.11 2.56 453.84 6.91 427.92 C 19.13 353.57 48.26 282.10 91.32 220.29 C 138.36 152.51 201.96 96.31 275.10 58.12 C 345.59 21.04 424.90 1.22 504.51 0.00 M 496.38 35.43 C 437.36 37.31 378.68 50.16 324.41 73.45 C 256.06 102.58 194.83 148.12 147.02 204.98 C 100.05 260.66 66.09 327.27 48.85 398.07 C 34.31 457.40 31.39 519.53 39.98 580.00 C 50.71 656.04 80.37 729.28 125.47 791.42 C 168.21 850.56 224.70 899.69 289.23 933.75 C 344.78 963.20 406.29 981.30 468.91 986.89 C 526.37 992.02 584.77 986.89 640.35 971.38 C 709.16 952.30 773.45 917.30 827.01 870.09 C 879.41 824.03 921.54 766.35 949.36 702.36 C 990.81 607.66 999.81 499.35 975.36 398.97 C 959.89 334.99 930.82 274.36 890.76 222.14 C 849.04 167.61 795.43 122.21 734.69 90.17 C 661.86 51.47 578.78 32.61 496.38 35.43 Z" />
<path fill="#4682b4" opacity="1.00" d=" M 481.48 77.71 C 561.91 71.97 643.87 89.01 715.08 126.91 C 776.90 159.53 830.58 207.32 870.29 264.82 C 906.10 316.51 930.50 376.06 941.06 438.06 C 952.46 504.43 948.32 573.45 928.80 637.92 C 906.93 710.61 865.43 777.19 810.09 829.11 C 754.66 881.41 685.28 918.80 611.02 936.01 C 548.14 950.65 482.00 951.12 418.92 937.32 C 353.31 923.07 291.21 893.16 239.01 850.97 C 185.58 807.95 142.47 752.19 114.47 689.56 C 79.52 611.97 68.53 523.99 82.57 440.12 C 94.14 370.06 123.44 303.07 166.80 246.87 C 208.83 192.21 263.93 147.66 326.30 118.23 C 374.89 95.20 427.83 81.41 481.48 77.71 M 483.52 112.80 C 454.43 114.89 425.56 120.04 397.61 128.38 C 322.61 150.50 254.64 195.47 204.63 255.54 C 157.96 311.25 126.97 379.93 116.28 451.83 C 108.47 504.00 110.87 557.72 123.59 608.93 C 133.65 649.47 150.16 688.41 172.31 723.83 C 213.17 789.48 273.50 842.84 343.72 875.23 C 407.99 905.18 480.34 917.18 550.87 910.33 C 602.75 905.41 653.63 890.13 699.64 865.65 C 742.64 842.84 781.40 812.08 813.41 775.41 C 848.78 735.02 875.90 687.44 892.51 636.38 C 913.66 571.72 917.77 501.65 904.78 434.90 C 891.33 365.23 858.69 299.45 811.55 246.45 C 760.83 189.06 693.29 146.71 619.44 126.34 C 575.36 114.05 529.15 109.63 483.52 112.80 Z" />
<path fill="#4682b4" opacity="1.00" d=" M 473.44 183.19 C 516.65 179.42 561.13 182.81 602.04 197.94 C 637.51 210.87 669.46 233.37 693.32 262.64 C 716.46 290.58 733.05 323.51 744.02 357.98 C 757.43 400.00 763.09 444.14 764.65 488.11 C 766.29 530.64 763.68 573.56 753.76 615.04 C 745.94 647.97 733.46 679.89 715.86 708.85 C 701.65 732.19 684.27 753.66 664.14 772.16 C 641.55 792.85 615.18 809.38 586.76 820.80 C 535.69 841.47 479.29 845.64 424.86 840.14 C 385.82 836.55 348.08 825.16 310.86 813.38 C 306.95 812.09 302.48 810.35 300.94 806.15 C 299.08 800.64 299.63 794.71 299.53 788.99 C 299.54 758.33 299.53 727.67 299.53 697.01 C 299.36 690.67 302.75 684.34 308.27 681.17 C 313.19 678.27 319.45 678.11 324.63 680.43 C 344.82 688.89 365.20 697.00 386.08 703.61 C 402.87 709.24 420.36 712.39 437.95 714.12 C 462.61 716.44 487.88 716.13 511.92 709.66 C 530.05 704.83 547.10 695.68 560.67 682.66 C 580.16 662.83 596.01 638.79 603.86 611.94 C 587.54 619.45 570.62 625.81 552.99 629.50 C 528.78 634.82 503.82 635.97 479.12 634.52 C 437.64 632.36 395.96 622.29 360.03 600.95 C 326.82 581.49 299.66 552.06 282.52 517.63 C 272.77 497.86 266.19 476.60 262.58 454.87 C 257.43 422.80 257.51 389.74 263.88 357.84 C 270.22 325.98 283.70 295.46 303.75 269.84 C 324.24 243.61 350.86 222.21 380.87 207.83 C 409.78 193.76 441.50 186.04 473.44 183.19 M 410.07 233.15 C 382.18 244.02 357.09 261.79 337.38 284.28 C 317.24 306.94 303.74 335.20 298.12 364.94 C 292.71 393.57 292.83 423.17 297.57 451.88 C 301.09 472.20 307.73 492.09 318.05 510.01 C 333.83 537.56 357.76 560.23 385.75 575.13 C 415.85 591.22 450.06 598.14 483.94 599.59 C 509.87 600.83 536.21 598.83 561.08 591.06 C 573.10 587.51 584.40 582.05 595.74 576.81 C 604.35 573.09 612.96 568.97 622.27 567.32 C 629.53 565.93 637.64 569.05 641.67 575.35 C 644.50 579.92 645.54 585.75 643.79 590.91 C 642.10 598.22 641.76 605.79 639.85 613.07 C 632.39 645.84 614.64 675.53 592.33 700.35 C 579.26 714.77 563.14 726.34 545.45 734.39 C 514.19 748.75 479.01 752.19 445.00 749.99 C 423.41 748.46 401.74 745.53 381.10 738.78 C 365.37 733.96 350.12 727.79 334.68 722.17 C 334.74 742.74 334.63 763.31 334.74 783.89 C 357.13 790.58 379.59 797.28 402.58 801.64 C 441.66 808.08 481.84 809.40 521.02 803.07 C 552.66 797.93 583.55 786.99 610.47 769.46 C 635.81 753.15 657.32 731.37 674.92 707.02 C 695.04 679.11 709.29 647.18 717.91 613.93 C 728.57 573.29 731.04 530.94 729.51 489.09 C 728.58 462.26 725.94 435.44 720.74 409.09 C 713.47 372.32 701.15 336.05 680.50 304.54 C 664.01 278.96 642.05 256.51 615.19 241.86 C 580.83 222.78 540.86 216.55 501.98 216.96 C 470.75 217.19 439.23 221.63 410.07 233.15 Z" />
<path fill="#4682b4" opacity="1.00" d=" M 485.46 270.71 C 509.72 267.85 534.93 270.03 557.68 279.31 C 583.02 289.49 604.02 309.51 616.03 333.97 C 626.35 354.73 630.67 378.01 631.46 401.04 C 632.53 433.82 627.37 468.18 609.18 496.12 C 599.81 510.47 587.21 522.75 572.43 531.45 C 555.63 541.42 536.33 546.67 516.93 548.11 C 495.55 549.68 473.65 547.27 453.61 539.44 C 427.39 529.43 405.30 509.23 393.05 483.97 C 383.07 463.82 378.72 441.30 377.77 418.95 C 376.93 397.71 378.61 376.18 384.63 355.72 C 389.68 338.57 398.03 322.24 409.99 308.87 C 429.06 287.03 456.90 274.06 485.46 270.71 M 487.61 305.77 C 468.53 308.03 450.14 316.85 437.28 331.26 C 421.29 348.36 414.74 372.04 413.20 394.91 C 411.85 417.08 413.06 439.98 421.19 460.89 C 427.96 478.46 440.88 493.64 457.38 502.76 C 469.80 509.63 484.02 512.64 498.11 513.26 C 513.75 513.91 529.81 512.52 544.40 506.51 C 559.57 500.30 572.22 488.75 580.92 474.97 C 591.65 457.68 595.50 437.09 596.30 417.02 C 596.97 396.61 595.35 375.66 587.70 356.54 C 579.47 335.84 562.72 318.22 541.65 310.50 C 524.43 304.29 505.64 303.65 487.61 305.77 Z" />
</g>
<g id="#87ceebff">
<path fill="#87ceeb" opacity="1.00" d=" M 496.38 35.43 C 578.78 32.61 661.86 51.47 734.69 90.17 C 795.43 122.21 849.04 167.61 890.76 222.14 C 930.82 274.36 959.89 334.99 975.36 398.97 C 999.81 499.35 990.81 607.66 949.36 702.36 C 921.54 766.35 879.41 824.03 827.01 870.09 C 773.45 917.30 709.16 952.30 640.35 971.38 C 584.77 986.89 526.37 992.02 468.91 986.89 C 406.29 981.30 344.78 963.20 289.23 933.75 C 224.70 899.69 168.21 850.56 125.47 791.42 C 80.37 729.28 50.71 656.04 39.98 580.00 C 31.39 519.53 34.31 457.40 48.85 398.07 C 66.09 327.27 100.05 260.66 147.02 204.98 C 194.83 148.12 256.06 102.58 324.41 73.45 C 378.68 50.16 437.36 37.31 496.38 35.43 M 481.48 77.71 C 427.83 81.41 374.89 95.20 326.30 118.23 C 263.93 147.66 208.83 192.21 166.80 246.87 C 123.44 303.07 94.14 370.06 82.57 440.12 C 68.53 523.99 79.52 611.97 114.47 689.56 C 142.47 752.19 185.58 807.95 239.01 850.97 C 291.21 893.16 353.31 923.07 418.92 937.32 C 482.00 951.12 548.14 950.65 611.02 936.01 C 685.28 918.80 754.66 881.41 810.09 829.11 C 865.43 777.19 906.93 710.61 928.80 637.92 C 948.32 573.45 952.46 504.43 941.06 438.06 C 930.50 376.06 906.10 316.51 870.29 264.82 C 830.58 207.32 776.90 159.53 715.08 126.91 C 643.87 89.01 561.91 71.97 481.48 77.71 Z" />
<path fill="#87ceeb" opacity="1.00" d=" M 410.07 233.15 C 439.23 221.63 470.75 217.19 501.98 216.96 C 540.86 216.55 580.83 222.78 615.19 241.86 C 642.05 256.51 664.01 278.96 680.50 304.54 C 701.15 336.05 713.47 372.32 720.74 409.09 C 725.94 435.44 728.58 462.26 729.51 489.09 C 731.04 530.94 728.57 573.29 717.91 613.93 C 709.29 647.18 695.04 679.11 674.92 707.02 C 657.32 731.37 635.81 753.15 610.47 769.46 C 583.55 786.99 552.66 797.93 521.02 803.07 C 481.84 809.40 441.66 808.08 402.58 801.64 C 379.59 797.28 357.13 790.58 334.74 783.89 C 334.63 763.31 334.74 742.74 334.68 722.17 C 350.12 727.79 365.37 733.96 381.10 738.78 C 401.74 745.53 423.41 748.46 445.00 749.99 C 479.01 752.19 514.19 748.75 545.45 734.39 C 563.14 726.34 579.26 714.77 592.33 700.35 C 614.64 675.53 632.39 645.84 639.85 613.07 C 641.76 605.79 642.10 598.22 643.79 590.91 C 645.54 585.75 644.50 579.92 641.67 575.35 C 637.64 569.05 629.53 565.93 622.27 567.32 C 612.96 568.97 604.35 573.09 595.74 576.81 C 584.40 582.05 573.10 587.51 561.08 591.06 C 536.21 598.83 509.87 600.83 483.94 599.59 C 450.06 598.14 415.85 591.22 385.75 575.13 C 357.76 560.23 333.83 537.56 318.05 510.01 C 307.73 492.09 301.09 472.20 297.57 451.88 C 292.83 423.17 292.71 393.57 298.12 364.94 C 303.74 335.20 317.24 306.94 337.38 284.28 C 357.09 261.79 382.18 244.02 410.07 233.15 M 485.46 270.71 C 456.90 274.06 429.06 287.03 409.99 308.87 C 398.03 322.24 389.68 338.57 384.63 355.72 C 378.61 376.18 376.93 397.71 377.77 418.95 C 378.72 441.30 383.07 463.82 393.05 483.97 C 405.30 509.23 427.39 529.43 453.61 539.44 C 473.65 547.27 495.55 549.68 516.93 548.11 C 536.33 546.67 555.63 541.42 572.43 531.45 C 587.21 522.75 599.81 510.47 609.18 496.12 C 627.37 468.18 632.53 433.82 631.46 401.04 C 630.67 378.01 626.35 354.73 616.03 333.97 C 604.02 309.51 583.02 289.49 557.68 279.31 C 534.93 270.03 509.72 267.85 485.46 270.71 Z" />
</g>
</svg>
